<?xml version="1.0" encoding="UTF-8" standalone="no"?>
<!DOCTYPE svg PUBLIC "-//W3C//DTD SVG 1.1//EN"
 "http://www.w3.org/Graphics/SVG/1.1/DTD/svg11.dtd">
<!-- Generated by graphviz version 2.40.1 (20161225.0304)
 -->
<!-- Title: graph_title Pages: 1 -->
<svg width="275pt" height="215pt"
 viewBox="0.00 0.00 275.06 215.00" xmlns="http://www.w3.org/2000/svg" xmlns:xlink="http://www.w3.org/1999/xlink">
<g id="graph0" class="graph" transform="scale(1 1) rotate(0) translate(4 211)">
<title>graph_title</title>
<polygon fill="#ffffff" stroke="transparent" points="-4,4 -4,-211 271.0552,-211 271.0552,4 -4,4"/>
<!-- Outside -->
<g id="node1" class="node">
<title>Outside</title>
<path fill="none" stroke="#000000" d="M115.9448,-162.5C115.9448,-162.5 151.4966,-162.5 151.4966,-162.5 157.4966,-162.5 163.4966,-168.5 163.4966,-174.5 163.4966,-174.5 163.4966,-194.5 163.4966,-194.5 163.4966,-200.5 157.4966,-206.5 151.4966,-206.5 151.4966,-206.5 115.9448,-206.5 115.9448,-206.5 109.9448,-206.5 103.9448,-200.5 103.9448,-194.5 103.9448,-194.5 103.9448,-174.5 103.9448,-174.5 103.9448,-168.5 109.9448,-162.5 115.9448,-162.5"/>
<text text-anchor="middle" x="133.7207" y="-191.3" font-family="Times,serif" font-size="14.00" fill="#000000">Outside</text>
<polyline fill="none" stroke="#000000" points="103.9448,-184.5 163.4966,-184.5 "/>
<text text-anchor="middle" x="133.7207" y="-169.3" font-family="Times,serif" font-size="14.00" fill="#000000"> </text>
</g>
<!-- Outside::A -->
<g id="node2" class="node">
<title>Outside::A</title>
<path fill="none" stroke="#000000" d="M12,-81.5C12,-81.5 65.4414,-81.5 65.4414,-81.5 71.4414,-81.5 77.4414,-87.5 77.4414,-93.5 77.4414,-93.5 77.4414,-113.5 77.4414,-113.5 77.4414,-119.5 71.4414,-125.5 65.4414,-125.5 65.4414,-125.5 12,-125.5 12,-125.5 6,-125.5 0,-119.5 0,-113.5 0,-113.5 0,-93.5 0,-93.5 0,-87.5 6,-81.5 12,-81.5"/>
<text text-anchor="middle" x="38.7207" y="-110.3" font-family="Times,serif" font-size="14.00" fill="#000000">Outside::A</text>
<polyline fill="none" stroke="#000000" points="0,-103.5 77.4414,-103.5 "/>
<text text-anchor="middle" x="38.7207" y="-88.3" font-family="Times,serif" font-size="14.00" fill="#000000"> </text>
</g>
<!-- Outside&#45;&gt;Outside::A -->
<g id="edge1" class="edge">
<title>Outside&#45;&gt;Outside::A</title>
<path fill="none" stroke="#000000" d="M107.7615,-162.3664C97.2892,-153.4373 85.0445,-142.9972 73.7989,-133.4088"/>
<polygon fill="#000000" stroke="#000000" points="73.7799,-133.3926 66.6189,-132.5435 64.6485,-125.6068 71.8094,-126.4559 73.7799,-133.3926"/>
</g>
<!-- Outside::B -->
<g id="node3" class="node">
<title>Outside::B</title>
<path fill="none" stroke="#000000" d="M107.3862,-81.5C107.3862,-81.5 160.0552,-81.5 160.0552,-81.5 166.0552,-81.5 172.0552,-87.5 172.0552,-93.5 172.0552,-93.5 172.0552,-113.5 172.0552,-113.5 172.0552,-119.5 166.0552,-125.5 160.0552,-125.5 160.0552,-125.5 107.3862,-125.5 107.3862,-125.5 101.3862,-125.5 95.3862,-119.5 95.3862,-113.5 95.3862,-113.5 95.3862,-93.5 95.3862,-93.5 95.3862,-87.5 101.3862,-81.5 107.3862,-81.5"/>
<text text-anchor="middle" x="133.7207" y="-110.3" font-family="Times,serif" font-size="14.00" fill="#000000">Outside::B</text>
<polyline fill="none" stroke="#000000" points="95.3862,-103.5 172.0552,-103.5 "/>
<text text-anchor="middle" x="133.7207" y="-88.3" font-family="Times,serif" font-size="14.00" fill="#000000"> </text>
</g>
<!-- Outside&#45;&gt;Outside::B -->
<g id="edge2" class="edge">
<title>Outside&#45;&gt;Outside::B</title>
<path fill="none" stroke="#000000" d="M133.7207,-162.3664C133.7207,-154.7767 133.7207,-146.0952 133.7207,-137.7731"/>
<polygon fill="#000000" stroke="#000000" points="133.7208,-137.6068 129.7208,-131.6069 133.7207,-125.6068 137.7208,-131.6068 133.7208,-137.6068"/>
</g>
<!-- Outside::C -->
<g id="node4" class="node">
<title>Outside::C</title>
<path fill="none" stroke="#000000" d="M202.3862,-81.5C202.3862,-81.5 255.0552,-81.5 255.0552,-81.5 261.0552,-81.5 267.0552,-87.5 267.0552,-93.5 267.0552,-93.5 267.0552,-113.5 267.0552,-113.5 267.0552,-119.5 261.0552,-125.5 255.0552,-125.5 255.0552,-125.5 202.3862,-125.5 202.3862,-125.5 196.3862,-125.5 190.3862,-119.5 190.3862,-113.5 190.3862,-113.5 190.3862,-93.5 190.3862,-93.5 190.3862,-87.5 196.3862,-81.5 202.3862,-81.5"/>
<text text-anchor="middle" x="228.7207" y="-110.3" font-family="Times,serif" font-size="14.00" fill="#000000">Outside::C</text>
<polyline fill="none" stroke="#000000" points="190.3862,-103.5 267.0552,-103.5 "/>
<text text-anchor="middle" x="228.7207" y="-88.3" font-family="Times,serif" font-size="14.00" fill="#000000"> </text>
</g>
<!-- Outside&#45;&gt;Outside::C -->
<g id="edge3" class="edge">
<title>Outside&#45;&gt;Outside::C</title>
<path fill="none" stroke="#000000" d="M159.6799,-162.3664C170.1522,-153.4373 182.3969,-142.9972 193.6425,-133.4088"/>
<polygon fill="#000000" stroke="#000000" points="193.6615,-133.3926 195.632,-126.4559 202.7929,-125.6068 200.8225,-132.5435 193.6615,-133.3926"/>
</g>
<!-- A -->
<g id="node5" class="node">
<title>A</title>
<path fill="none" stroke="#000000" d="M118.7207,-.5C118.7207,-.5 148.7207,-.5 148.7207,-.5 154.7207,-.5 160.7207,-6.5 160.7207,-12.5 160.7207,-12.5 160.7207,-32.5 160.7207,-32.5 160.7207,-38.5 154.7207,-44.5 148.7207,-44.5 148.7207,-44.5 118.7207,-44.5 118.7207,-44.5 112.7207,-44.5 106.7207,-38.5 106.7207,-32.5 106.7207,-32.5 106.7207,-12.5 106.7207,-12.5 106.7207,-6.5 112.7207,-.5 118.7207,-.5"/>
<text text-anchor="middle" x="133.2759" y="-29.3" font-family="Times,serif" font-size="14.00" fill="#000000">A</text>
<polyline fill="none" stroke="#000000" points="106.7207,-22.5 159.8311,-22.5 "/>
<text text-anchor="middle" x="133.2759" y="-7.3" font-family="Times,serif" font-size="14.00" fill="#000000"> </text>
</g>
<!-- Outside::B&#45;&gt;A -->
<g id="edge4" class="edge">
<title>Outside::B&#45;&gt;A</title>
<path fill="none" stroke="#000000" d="M133.7207,-81.3664C133.7207,-73.1516 133.7207,-63.6579 133.7207,-54.7252"/>
<polygon fill="none" stroke="#000000" points="137.2208,-54.6068 133.7207,-44.6068 130.2208,-54.6069 137.2208,-54.6068"/>
</g>
<!-- Missing -->
<g id="node6" class="node">
<title>Missing</title>
<path fill="none" stroke="#000000" d="M210.1587,-.5C210.1587,-.5 247.2827,-.5 247.2827,-.5 253.2827,-.5 259.2827,-6.5 259.2827,-12.5 259.2827,-12.5 259.2827,-32.5 259.2827,-32.5 259.2827,-38.5 253.2827,-44.5 247.2827,-44.5 247.2827,-44.5 210.1587,-44.5 210.1587,-44.5 204.1587,-44.5 198.1587,-38.5 198.1587,-32.5 198.1587,-32.5 198.1587,-12.5 198.1587,-12.5 198.1587,-6.5 204.1587,-.5 210.1587,-.5"/>
<text text-anchor="middle" x="228.7207" y="-29.3" font-family="Times,serif" font-size="14.00" fill="#000000">Missing</text>
<polyline fill="none" stroke="#000000" points="198.1587,-22.5 259.2827,-22.5 "/>
<text text-anchor="middle" x="228.7207" y="-7.3" font-family="Times,serif" font-size="14.00" fill="#000000"> </text>
</g>
<!-- Outside::C&#45;&gt;Missing -->
<g id="edge5" class="edge">
<title>Outside::C&#45;&gt;Missing</title>
<path fill="none" stroke="#000000" d="M228.7207,-81.3664C228.7207,-73.1516 228.7207,-63.6579 228.7207,-54.7252"/>
<polygon fill="none" stroke="#000000" points="232.2208,-54.6068 228.7207,-44.6068 225.2208,-54.6069 232.2208,-54.6068"/>
</g>
</g>
</svg>
